<?xml version="1.0" standalone="no"?>
<!DOCTYPE svg PUBLIC "-//W3C//DTD SVG 20010904//EN"
 "http://www.w3.org/TR/2001/REC-SVG-20010904/DTD/svg10.dtd">
<svg version="1.0" xmlns="http://www.w3.org/2000/svg"
 width="16.000000pt" height="16.000000pt" viewBox="0 0 16.000000 16.000000"
 preserveAspectRatio="xMidYMid meet">

<g transform="translate(0.000000,16.000000) scale(0.100000,-0.100000)"
fill="#000000" stroke="none">
<path d="M0 144 c0 -8 5 -12 10 -9 6 4 9 -17 8 -57 l-1 -63 -7 55 -7 55 -1
-62 -2 -63 80 0 c75 0 105 11 60 23 -17 4 -20 14 -20 57 0 43 3 53 20 57 45
12 15 23 -60 23 -66 0 -80 -3 -80 -16z m75 -64 c0 -48 -2 -55 -20 -55 -16 0
-21 8 -23 44 -4 54 3 73 25 69 15 -3 18 -14 18 -58z m33 -2 l-1 -63 -6 55 c-4
30 -5 58 -3 63 9 19 12 2 10 -55z"/>
<path d="M40 80 c0 -38 4 -50 15 -50 11 0 15 12 15 50 0 38 -4 50 -15 50 -11
0 -15 -12 -15 -50z"/>
<path d="M130 80 c0 -38 4 -50 15 -50 11 0 15 12 15 50 0 38 -4 50 -15 50 -11
0 -15 -12 -15 -50z"/>
</g>
</svg>
